<svg width="24" height="18" viewBox="0 0 24 18" fill="none" xmlns="http://www.w3.org/2000/svg">
<path d="M22.5932 0H0.579314C0.259368 0 0 0.249196 0 0.556595V1.85532C0 2.16272 0.259368 2.41191 0.579314 2.41191H22.5932C22.9132 2.41191 23.1725 2.16272 23.1725 1.85532V0.556595C23.1725 0.249196 22.9132 0 22.5932 0Z" fill="white"/>
<path d="M22.5932 7.42139H0.579314C0.259368 7.42139 0 7.67058 0 7.97798V9.27671C0 9.5841 0.259368 9.8333 0.579314 9.8333H22.5932C22.9132 9.8333 23.1725 9.5841 23.1725 9.27671V7.97798C23.1725 7.67058 22.9132 7.42139 22.5932 7.42139Z" fill="white"/>
<path d="M22.5932 14.8428H0.579314C0.259368 14.8428 0 15.092 0 15.3994V16.6981C0 17.0055 0.259368 17.2547 0.579314 17.2547H22.5932C22.9132 17.2547 23.1725 17.0055 23.1725 16.6981V15.3994C23.1725 15.092 22.9132 14.8428 22.5932 14.8428Z" fill="white"/>
</svg>
