<svg width="43" height="43" viewBox="0 0 43 43" fill="none" xmlns="http://www.w3.org/2000/svg">
<g clip-path="url(#clip0_2102_613)">
<rect width="43" height="43" fill="black"/>
<path d="M21.7212 10.1787C15.6173 10.1787 10.6729 15.0891 10.6729 21.1589C10.6729 23.5459 11.4571 25.7965 12.787 27.6038L11.389 31.6958L15.6514 30.3318C17.3905 31.4912 19.5047 32.1391 21.7553 32.1391C27.8592 32.1391 32.8378 27.2287 32.8378 21.1589C32.8037 15.0891 27.8251 10.1787 21.7212 10.1787ZM28.2002 25.6942C27.9274 26.4444 26.5975 27.1605 26.0178 27.2287C25.4381 27.2969 25.4381 27.7061 22.1304 26.4444C18.8568 25.1486 16.7767 21.8409 16.6062 21.6022C16.4357 21.3976 15.2763 19.8631 15.2763 18.2945C15.2763 16.7259 16.0947 15.9416 16.4016 15.6347C16.7085 15.3278 17.0495 15.2255 17.2541 15.2255C17.4587 15.2255 17.6974 15.2596 17.8679 15.2596C18.0725 15.2596 18.3112 15.1573 18.584 15.8052C18.8568 16.4531 19.5047 18.0217 19.5729 18.1922C19.6411 18.3627 19.7093 18.5332 19.607 18.7378C19.5047 18.9424 19.4365 19.0788 19.3001 19.2834C19.1296 19.4539 18.9591 19.6926 18.8227 19.829C18.6522 19.9995 18.4817 20.17 18.6863 20.4769C18.8909 20.7838 19.5388 21.8409 20.4936 22.6934C21.7212 23.7846 22.7783 24.1256 23.0852 24.2961C23.3921 24.4666 23.5967 24.4325 23.7672 24.2279C23.9718 24.0233 24.5856 23.3072 24.7902 22.9662C24.9948 22.6593 25.2335 22.6934 25.5063 22.7957C25.8132 22.898 27.3818 23.6823 27.7228 23.8528C28.0297 24.0233 28.2684 24.0915 28.3366 24.2279C28.4389 24.2961 28.4389 24.944 28.2002 25.6942Z" fill="white"/>
<path d="M42.0002 0L3.00046 -0.5C-2.93293 -0.5 7.11679e-05 0 0.000132442 10.7841V32.25C0.000132442 38.154 -4.93305 43 1.00034 43H43.0001C48.9335 43 43.0001 38.154 43.0001 32.2159V10.7841C42.966 4.84603 47.9336 0 42.0002 0ZM21.7218 34.2294C19.8875 34.2294 18.16 33.8663 16.5729 33.191C15.77 32.8493 14.8739 32.7411 14.0424 33.0055L13.7528 33.0976C11.3912 33.8486 9.18065 31.5914 9.98089 29.246C10.2686 28.4027 10.1506 27.4837 9.77517 26.6756C8.9934 24.9929 8.55921 23.1193 8.55921 21.1587C8.55921 13.9238 14.4585 8.0881 21.7218 8.0881C28.9851 8.0881 34.8843 13.9238 34.8843 21.1587C34.8843 28.3937 28.9851 34.2294 21.7218 34.2294Z" fill="white"/>
</g>
<defs>
<clipPath id="clip0_2102_613">
<rect width="43" height="43" fill="white"/>
</clipPath>
</defs>
</svg>
