<svg width="92" height="88" viewBox="0 0 92 88" fill="none" xmlns="http://www.w3.org/2000/svg">
<path fill-rule="evenodd" clip-rule="evenodd" d="M41.6071 72.2146C33.5227 72.2146 24.3605 70.436 14.8748 65.0464C14.5514 64.8848 14.3359 64.7231 14.282 64.6692C13.5813 64.3458 13.3118 63.5913 13.5813 62.9445C13.9047 62.2978 14.6592 61.9744 15.306 62.2978C15.4677 62.3517 15.7371 62.5133 16.1144 62.7289C32.3909 71.8912 47.6973 70.1126 57.7219 67.0406C58.4226 66.825 59.1232 67.2023 59.3927 67.9568C59.6083 68.6036 59.231 69.3581 58.4765 69.5737C53.8414 71.0828 48.0746 72.2146 41.6071 72.2146Z" fill="white"/>
<path fill-rule="evenodd" clip-rule="evenodd" d="M14.7661 64.8845C14.6583 64.8845 14.4967 64.8845 14.3889 64.8306C13.7421 64.5611 13.3648 63.8605 13.5804 63.1598C13.6882 62.9442 15.3051 57.9319 19.4012 55.4527C22.6888 53.5125 24.8446 53.0813 27.6472 52.5424C28.2401 52.4346 28.8868 52.3268 29.5875 52.1112C31.3121 51.7339 32.5517 50.0093 33.3063 48.4463C26.5154 48.8236 22.6349 45.1048 22.4732 44.8892C22.096 44.5119 21.9343 43.9729 22.2037 43.434C22.3115 43.0567 22.6888 42.7872 23.0661 42.6256C23.2278 42.5717 23.9823 42.0866 25.5453 40.0386C27.0544 38.1522 27.3238 34.649 27.6472 30.9841C28.294 23.2231 29.1024 13.5219 42.0913 12.9829H42.1991C55.2418 13.5758 56.1042 23.277 56.7509 31.038C57.0743 34.7029 57.3438 38.2061 58.8528 40.0925C60.4158 42.0866 61.2242 42.6256 61.3859 42.7333C61.8171 42.7872 62.1405 43.0567 62.3561 43.5418C62.5177 43.9729 62.41 44.5658 62.0327 44.9431C61.9249 45.1048 57.8827 48.9314 51.1996 48.4463C51.9542 49.9554 53.2477 51.7339 54.9723 52.1112C55.7269 52.2729 56.3197 52.4346 56.9126 52.5424C59.6613 53.0813 61.8171 53.5125 65.1047 55.4527C65.8593 55.9378 66.5599 56.4229 67.3684 57.1774C67.8534 57.6625 67.9612 58.5248 67.4223 59.0638C66.9911 59.6027 66.0749 59.6566 65.5898 59.1176C64.8892 58.5248 64.2963 58.0936 63.7573 57.7164C60.9548 56.0995 59.1223 55.7222 56.4275 55.1833C55.8347 55.0216 55.1879 54.8599 54.4334 54.7521C49.9061 53.6742 48.0737 47.584 48.0198 47.3145C47.8581 46.8833 48.0198 46.4522 48.2893 46.0749C48.6126 45.7515 49.0438 45.6437 49.5289 45.6976C54.0022 46.6138 57.2899 45.1587 59.0145 44.1346C58.4217 43.5957 57.721 42.8411 56.9126 41.8171C54.9723 39.284 54.649 35.4574 54.2717 31.4152C53.625 23.6543 53.0321 16.2705 42.3607 15.8394C31.6355 16.2167 31.0426 23.6004 30.3959 31.4152C30.0186 35.5113 29.6952 39.3379 27.755 41.871C27.0544 42.8411 26.3537 43.5957 25.7609 44.1885C27.4855 45.2664 30.6654 46.6677 35.2465 45.7515C35.6777 45.6976 36.1627 45.8593 36.4322 46.1288C36.7556 46.506 36.8634 46.9372 36.7556 47.4223C36.6478 47.6379 34.8153 53.8359 30.2342 54.806C29.4797 54.9677 28.8329 55.1294 28.2401 55.2372C25.5453 55.7761 23.7667 56.1534 20.8564 57.878C17.5687 59.8183 16.1135 64.0761 16.1135 64.1299C15.8979 64.5072 15.359 64.8845 14.7661 64.8845Z" fill="white"/>
<path fill-rule="evenodd" clip-rule="evenodd" d="M42.2004 84.826C18.9174 84.826 0 65.9086 0 42.6256C0 19.3427 18.9713 0.425293 42.2004 0.425293C65.4833 0.425293 84.4007 19.3966 84.4007 42.6256C84.4007 49.5243 82.676 56.423 79.3884 62.5671C79.0111 63.2677 78.2566 63.4833 77.6098 63.106C76.9092 62.7287 76.6936 61.9742 77.0709 61.3275C80.1968 55.4528 81.7598 49.2009 81.7598 42.6256C81.7598 20.8518 63.9742 3.06618 42.2004 3.06618C20.3726 3.06618 2.58699 20.8518 2.58699 42.6256C2.58699 64.4534 20.3726 82.1851 42.2004 82.1851C47.9672 82.1851 53.6801 80.9455 58.6924 78.628C59.3931 78.3046 60.0937 78.628 60.4171 79.2208C60.6866 79.9215 60.4171 80.6221 59.8243 80.9455C54.4347 83.5325 48.3984 84.826 42.2004 84.826Z" fill="white"/>
<path fill-rule="evenodd" clip-rule="evenodd" d="M82.6768 87.521C82.3534 87.521 82.1378 87.4132 81.9223 87.3054L69.9574 78.5743L58.0465 87.3054C57.5614 87.5749 56.9685 87.6827 56.4296 87.3054C55.9984 86.9821 55.7828 86.3892 55.9984 85.7964L60.5796 71.7296L48.5608 62.9985C48.0758 62.729 47.8602 62.1361 48.0758 61.5433C48.2374 61.0043 48.7764 60.6271 49.3693 60.6271H64.2445L68.7717 46.5064C68.9334 45.9674 69.4724 45.644 70.0652 45.644C70.6581 45.644 71.0892 45.9674 71.3048 46.5064L75.8859 60.6271H90.6534C91.2462 60.6271 91.6774 61.0043 91.9469 61.5433C92.0547 62.0283 91.9469 62.6212 91.4618 62.9985L79.5509 71.6757L84.1859 85.7964C84.2937 86.3353 84.1859 86.9282 83.7008 87.3054C83.2697 87.4132 82.9463 87.521 82.6768 87.521ZM53.3036 63.3218L62.7893 70.1666C63.2743 70.49 63.4899 71.0828 63.2743 71.6757L59.6094 82.8321L69.0951 75.8795C69.5262 75.5562 70.1191 75.5562 70.6581 75.8795L80.1437 82.8321L76.4788 71.6757C76.3171 71.1367 76.4788 70.5439 76.91 70.1666L86.3956 63.3218H74.7002C74.0535 63.3218 73.6223 62.9446 73.4067 62.4056L69.7957 51.3031L66.2386 62.4056C66.0769 62.9446 65.5919 63.3218 64.9451 63.3218H53.3036Z" fill="white"/>
</svg>
