<svg width="85" height="85" viewBox="0 0 85 85" fill="none" xmlns="http://www.w3.org/2000/svg">
<path d="M49.9304 0H16.4659V5.48819H10.9609V85H68.5367V79.5118H74.0249V24.1112H74.0416L49.9304 0ZM50.7336 4.68504L69.3566 23.3081H50.7336V4.68504ZM65.8094 82.2559H13.705V8.23228H16.4491V79.5285H65.8094V82.2559ZM71.2976 76.7844H19.1932V76.7677V2.74409H47.9895V26.0522H71.2976V76.7844Z" fill="white"/>
<path d="M63.516 43.1194H49.5612L45.2443 29.834L40.9274 43.1194H26.9727L38.2669 51.3182L33.95 64.6037L45.2443 56.4049L56.5386 64.6037L52.2217 51.3182L63.516 43.1194ZM45.2443 53.0082L39.1705 57.4255L41.4963 50.2808L35.4225 45.8635H42.9353L45.261 38.7188L47.5868 45.8635H55.0996L49.0258 50.2808L51.3181 57.4255L45.2443 53.0082Z" fill="white"/>
</svg>
