<svg xmlns="http://www.w3.org/2000/svg" width="40" height="40" aria-hidden="true"><g fill="none" fill-rule="evenodd"><path fill="none" d="M0 40h40V0H0z"/><g transform="translate(8 8)" fill="#FFF" fill-rule="nonzero"><path d="M16.5 0h-9A7.5 7.5 0 000 7.5v9A7.5 7.5 0 007.5 24h9a7.5 7.5 0 007.5-7.5v-9A7.5 7.5 0 0016.5 0zm5.413 16.575a5.344 5.344 0 01-5.338 5.338h-9.15a5.344 5.344 0 01-5.338-5.338v-9.15a5.344 5.344 0 015.338-5.338h9.15a5.344 5.344 0 015.338 5.338v9.15z"/><path d="M12 6.26a5.74 5.74 0 100 11.48 5.74 5.74 0 000-11.48zm0 9.392A3.657 3.657 0 018.348 12 3.656 3.656 0 0112 8.348 3.656 3.656 0 0115.652 12 3.657 3.657 0 0112 15.652z"/><circle cx="18.783" cy="5.217" r="1.043"/></g></g></svg>