<svg width="90" height="90" viewBox="0 0 90 90" fill="none" xmlns="http://www.w3.org/2000/svg">
<path d="M62.4356 31.6267L39.9339 50.0193L38.8751 50.8865C38.6425 51.0709 38.4907 51.3385 38.4516 51.6327L38.2147 53.5889L37.5643 59.0845C37.5703 59.1514 37.5495 59.2179 37.5065 59.2694C37.4634 59.321 37.4017 59.3533 37.3349 59.3593C37.268 59.3653 37.2015 59.3445 37.15 59.3015C37.0984 59.2585 37.0661 59.1968 37.0601 59.1299L35.2299 53.6343L33.3392 48.0126C33.2585 47.7607 33.2688 47.4885 33.3684 47.2434C33.4679 46.9983 33.6503 46.7959 33.8837 46.6715L57.298 33.2501L61.7046 30.7292C62.3449 30.3561 63.0003 31.1628 62.4356 31.6267Z" fill="white"/>
<path d="M76.9999 1.00006H13.0002C9.81763 1.00006 3.25058 -1.25019 1.00016 1.00024C-1.25026 3.25067 1.00027 9.81743 1.00027 13V76.9998C1.00027 80.1824 -1.25015 86.7494 1.00027 88.9998C3.2507 91.2502 9.81763 88.9998 13.0002 88.9998H76.9999C80.1825 88.9998 86.7494 91.2502 88.9998 88.9998C91.2502 86.7494 88.9998 80.1824 88.9998 76.9998V13C88.9998 9.81743 91.2502 3.25067 88.9998 1.00024C86.7494 -1.25019 80.1825 1.00006 76.9999 1.00006ZM72.4449 26.47L63.855 64.4249C63.45 66.2049 61.19 67.0099 59.605 65.9249L46.635 57.1249L40.0301 63.3699C39.7607 63.6226 39.4338 63.8058 39.0777 63.9035C38.7215 64.0013 38.3469 64.0107 37.9863 63.9309C37.6257 63.8511 37.29 63.6845 37.0084 63.4456C36.7267 63.2067 36.5076 62.9026 36.3701 62.5599L33.9851 55.5599L31.6001 48.5599L18.8152 45.0599C18.4577 44.9819 18.136 44.7879 17.9002 44.5082C17.6643 44.2285 17.5275 43.8787 17.511 43.5132C17.4944 43.1476 17.5991 42.7869 17.8087 42.487C18.0184 42.1872 18.3212 41.9649 18.6702 41.8549L68.0599 24.06L68.9699 23.735C70.8849 23.065 72.8649 24.615 72.4449 26.47Z" fill="white"/>
</svg>
